<svg width="18" height="18" viewBox="0 0 18 18" fill="none" xmlns="http://www.w3.org/2000/svg">
<g clip-path="url(#clip0_38395_37252)">
<path d="M9 4.63636C12.1009 4.63636 14.8664 6.37909 16.2164 9.13636C14.8664 11.8936 12.1091 13.6364 9 13.6364C5.89091 13.6364 3.13364 11.8936 1.78364 9.13636C3.13364 6.37909 5.89909 4.63636 9 4.63636ZM9 3C4.90909 3 1.41545 5.54455 0 9.13636C1.41545 12.7282 4.90909 15.2727 9 15.2727C13.0909 15.2727 16.5845 12.7282 18 9.13636C16.5845 5.54455 13.0909 3 9 3ZM9 7.09091C10.1291 7.09091 11.0455 8.00727 11.0455 9.13636C11.0455 10.2655 10.1291 11.1818 9 11.1818C7.87091 11.1818 6.95455 10.2655 6.95455 9.13636C6.95455 8.00727 7.87091 7.09091 9 7.09091ZM9 5.45455C6.97091 5.45455 5.31818 7.10727 5.31818 9.13636C5.31818 11.1655 6.97091 12.8182 9 12.8182C11.0291 12.8182 12.6818 11.1655 12.6818 9.13636C12.6818 7.10727 11.0291 5.45455 9 5.45455Z" fill="white"/>
<line x1="1.32598" y1="2.62088" x2="16.4909" y2="15.6602" stroke="white"/>
</g>
<defs>
<clipPath id="clip0_38395_37252">
<rect width="18" height="18" fill="white"/>
</clipPath>
</defs>
</svg>
