<svg width="12" height="12" viewBox="0 0 12 12" fill="none" xmlns="http://www.w3.org/2000/svg">
<path d="M6 9C6.17 9 6.3126 8.9424 6.4278 8.8272C6.543 8.712 6.6004 8.5696 6.6 8.4V6C6.6 5.83 6.5424 5.6874 6.4272 5.5722C6.312 5.457 6.1696 5.3996 6 5.4C5.83 5.4 5.6874 5.4576 5.5722 5.5728C5.457 5.688 5.3996 5.8304 5.4 6V8.4C5.4 8.57 5.4576 8.7126 5.5728 8.8278C5.688 8.943 5.8304 9.0004 6 9ZM6 4.2C6.17 4.2 6.3126 4.1424 6.4278 4.0272C6.543 3.912 6.6004 3.7696 6.6 3.6C6.6 3.43 6.5424 3.2874 6.4272 3.1722C6.312 3.057 6.1696 2.9996 6 3C5.83 3 5.6874 3.0576 5.5722 3.1728C5.457 3.288 5.3996 3.4304 5.4 3.6C5.4 3.77 5.4576 3.9126 5.5728 4.0278C5.688 4.143 5.8304 4.2004 6 4.2ZM6 12C5.17 12 4.39 11.8424 3.66 11.5272C2.93 11.212 2.295 10.7846 1.755 10.245C1.215 9.705 0.7876 9.07 0.4728 8.34C0.158 7.61 0.0004 6.83 0 6C0 5.17 0.1576 4.39 0.4728 3.66C0.788 2.93 1.2154 2.295 1.755 1.755C2.295 1.215 2.93 0.7876 3.66 0.4728C4.39 0.158 5.17 0.0004 6 0C6.83 0 7.61 0.1576 8.34 0.4728C9.07 0.788 9.705 1.2154 10.245 1.755C10.785 2.295 11.2126 2.93 11.5278 3.66C11.843 4.39 12.0004 5.17 12 6C12 6.83 11.8424 7.61 11.5272 8.34C11.212 9.07 10.7846 9.705 10.245 10.245C9.705 10.785 9.07 11.2126 8.34 11.5278C7.61 11.843 6.83 12.0004 6 12ZM6 10.8C7.34 10.8 8.475 10.335 9.405 9.405C10.335 8.475 10.8 7.34 10.8 6C10.8 4.66 10.335 3.525 9.405 2.595C8.475 1.665 7.34 1.2 6 1.2C4.66 1.2 3.525 1.665 2.595 2.595C1.665 3.525 1.2 4.66 1.2 6C1.2 7.34 1.665 8.475 2.595 9.405C3.525 10.335 4.66 10.8 6 10.8Z" fill="#FD4141"/>
</svg>
