<svg width="20" height="20" viewBox="0 0 20 20" fill="none" xmlns="http://www.w3.org/2000/svg">
<path d="M10.75 7.3125C10.625 7.375 10.5625 7.375 10.375 7.4375V13.875C10.5625 13.9375 10.8125 14.0625 11 14.25L13.875 11.9375C13.8125 11.8125 13.8125 11.5625 13.8125 11.375C13.8125 11.1875 13.875 10.875 13.9375 10.6875L10.75 7.3125ZM6 10.6875C6.125 10.875 6.1875 11.1875 6.1875 11.4375C6.1875 11.625 6.125 11.875 6.0625 12.0625L8.9375 14.375C9.0625 14.25 9.3125 14.125 9.5 14V7.4375C9.375 7.375 9.3125 7.375 9.25 7.3125L6 10.6875Z" fill="white"/>
<path d="M10 0L0 11.875L10 20L20 11.875L10 0ZM15.4375 13.0625C15.0625 13.0625 14.75 12.9375 14.4375 12.6875L11.5625 15.0625C11.625 15.1875 11.625 15.3125 11.625 15.5C11.625 16.375 10.9375 17.125 10 17.125C9.0625 17.125 8.375 16.4375 8.375 15.5C8.375 15.375 8.375 15.25 8.4375 15.125L5.375 12.75C5.125 12.9375 4.8125 13 4.5 13C3.625 13 2.875 12.3125 2.875 11.375C2.875 10.5 3.5625 9.75 4.5 9.75C4.75 9.75 5 9.8125 5.25 9.9375L8.4375 6.4375C8.375 6.25 8.3125 6 8.3125 5.75C8.3125 4.875 9 4.125 9.9375 4.125C10.875 4.125 11.5625 4.8125 11.5625 5.75C11.5625 6 11.5 6.3125 11.375 6.5L14.5 10C14.7539 9.87889 15.0312 9.81489 15.3125 9.8125C16.1875 9.8125 16.9375 10.5 16.9375 11.4375C16.9528 11.6443 16.9254 11.852 16.8571 12.0478C16.7887 12.2436 16.6809 12.4232 16.5402 12.5756C16.3996 12.728 16.2291 12.8498 16.0394 12.9336C15.8497 13.0173 15.6449 13.0612 15.4375 13.0625Z" fill="white"/>
</svg>
