<svg width="15" height="15" viewBox="0 0 15 15" fill="none" xmlns="http://www.w3.org/2000/svg">
<path d="M10.2638 3.93725L5.65078 8.55025L3.13778 6.04425L2.15078 7.03125L5.65078 10.5312L11.2508 4.93125L10.2638 3.93725ZM7.05078 0.03125C3.18678 0.03125 0.0507812 3.16725 0.0507812 7.03125C0.0507812 10.8952 3.18678 14.0312 7.05078 14.0312C10.9148 14.0312 14.0508 10.8952 14.0508 7.03125C14.0508 3.16725 10.9148 0.03125 7.05078 0.03125ZM7.05078 12.6312C3.95678 12.6312 1.45078 10.1252 1.45078 7.03125C1.45078 3.93725 3.95678 1.43125 7.05078 1.43125C10.1448 1.43125 12.6508 3.93725 12.6508 7.03125C12.6508 10.1252 10.1448 12.6312 7.05078 12.6312Z" fill="#2FCC08"/>
</svg>
